<?xml version="1.0" encoding="utf-8"?>
<!-- Generator: Adobe Illustrator 28.0.0, SVG Export Plug-In . SVG Version: 6.00 Build 0)  -->
<svg version="1.1" id="Layer_2_00000034056634891321250540000011592063360487907769_"
	 xmlns="http://www.w3.org/2000/svg" xmlns:xlink="http://www.w3.org/1999/xlink" x="0px" y="0px" viewBox="0 0 790 790"
	 style="enable-background:new 0 0 790 790;" xml:space="preserve">
<style type="text/css">
	.st0{fill:#2B93D1;}
</style>
<g id="Layer_1-2">
	<g>
		<path class="st0" d="M674.5,115.8L674.5,115.8C644.7,86,596.4,86,566.8,115.7C533,149.5,513.3,192,507.6,236l0,0c0,0,0,0,0,0.1
			c-29.2-3.5-56.6-14.8-79.7-33c-5.5,7.1-11.4,13.8-17.7,20.1l0,0c-4.8,4.8-9.8,9.4-15,13.6c14.4,11.8,30.3,21.7,47.5,29.4
			c1.1,0.5,2.3,1,3.4,1.5s2.2,0.9,3.4,1.4c0.6,0.2,1.2,0.5,1.8,0.7c0.8,0.3,1.6,0.6,2.4,0.9c1.1,0.4,2.1,0.8,3.2,1.2
			c1.3,0.5,2.5,0.9,3.8,1.3c15,5,30.5,8.4,46.2,9.9c0.1,0,0.1,0,0.1,0c6.8,0.7,13.5,1,20.3,1c8.9,0,17.9-0.5,26.8-1.7h0.1
			c44.1-5.7,86.6-25.4,120.4-59.1C704,193.7,704,145.5,674.5,115.8L674.5,115.8L674.5,115.8z M555.2,234.8
			c5.5-31.5,20.4-61.7,44.7-85.9c11.4-11.4,29.9-11.4,41.2,0l0.1,0.1c11.2,11.4,11.2,29.8-0.1,41.1
			C616.8,214.4,586.7,229.3,555.2,234.8L555.2,234.8z"/>
		<path class="st0" d="M471.1,713.8c0-46.6-15.2-90.8-43.2-127.1l0,0c23.1-18.1,50.5-29.4,79.6-32.9c-1.1-8.9-1.7-17.9-1.7-26.8
			c0,0,0.3-13.6,0.9-20.3c-19.5,1.9-38.9,6.6-57.4,14c-1.1,0.4-2.2,0.9-3.4,1.4c-1.1,0.5-2.3,1-3.5,1.5
			c-17.2,7.7-33.1,17.6-47.4,29.4l0,0c-5.2,4.3-10.3,8.9-15.1,13.7c-6.3,6.3-12.3,13-17.7,20.1l0,0c-27.2,35.2-43.3,79.2-43.3,127
			c0,21,8.5,40,22.3,53.8s32.8,22.3,53.8,22.3h0.2c20.3,0,39.3-8,53.6-22.3S471.1,734.2,471.1,713.8L471.1,713.8L471.1,713.8z
			 M395.1,743H395c-16.1,0-29.2-13.1-29.2-29.2c0-33.6,10.2-65.6,29.2-92.5c18.9,26.9,29.2,58.9,29.2,92.5c0,7.8-3,15.1-8.5,20.6
			S402.9,742.9,395.1,743L395.1,743L395.1,743z"/>
		<path class="st0" d="M282.5,553.8c29.2,3.5,56.6,14.8,79.8,33c5.5-7.1,11.4-13.8,17.7-20.1l0,0c4.9-4.8,9.9-9.4,15.1-13.7
			c-32.7-26.9-71.7-42.3-111.6-46.2h-0.1c-6.7-0.7-13.5-1-20.2-1c-8.9,0-17.9,0.6-26.8,1.7h-0.1c-44.1,5.7-86.6,25.4-120.4,59.1
			c-29.7,29.7-29.7,78,0,107.6l0.2,0.2c29.7,29.5,77.8,29.4,107.5-0.2C257.1,640.5,276.8,597.9,282.5,553.8L282.5,553.8L282.5,553.8
			L282.5,553.8z M149,641.2c-0.1-0.1-0.1-0.1-0.2-0.2c-11.4-11.4-11.4-29.9,0-41.2c24.3-24.3,54.4-39.2,85.9-44.7
			c-5.5,31.5-20.4,61.7-44.7,85.9C178.8,652.4,160.4,652.4,149,641.2L149,641.2z"/>
		<path class="st0" d="M283.2,506.6c-3.9-39.9-19.3-79-46.1-111.6l0,0l0,0c-4.3-5.2-8.9-10.2-13.7-15.1
			c-6.4-6.4-13.1-12.3-20.1-17.7l0,0c-36.2-28-80.5-43.2-127.1-43.2c-20.3,0-39.5,7.9-53.8,22.3C7.9,355.5,0,374.6,0,395v0.1
			c0,20.3,8,39.4,22.3,53.7c14.4,14.4,33.5,22.3,53.8,22.3c47.8,0,91.8-16.2,127-43.3c0,0,0,0,0.1,0c18.1,23.1,29.5,50.5,33,79.7
			c8.9-1.1,17.8-1.7,26.8-1.7v-0.1C269.7,505.6,276.5,506,283.2,506.6L283.2,506.6L283.2,506.6z M76.1,424.2c-7.8,0-15.1-3-20.6-8.6
			c-5.5-5.5-8.5-12.8-8.5-20.5V395c0-7.8,3-15.1,8.5-20.6s12.8-8.5,20.6-8.5c33.6,0,65.6,10.2,92.5,29.2
			C141.8,413.9,109.7,424.2,76.1,424.2L76.1,424.2L76.1,424.2z"/>
		<path class="st0" d="M427.8,203.1L427.8,203.1c27.2-35.2,43.4-79.3,43.4-127c0-41.9-34.1-76-76-76.1H395
			c-42,0-76.1,34.2-76.1,76.1c0,47.8,16.2,91.8,43.3,127l0,0c-7.3,5.8-15,10.8-23,15c-1.1,0.6-2.1,1.2-3.2,1.7
			c-0.8,0.4-1.6,0.8-2.5,1.2c-0.7,0.3-1.4,0.6-2,1c-0.4,0.2-0.8,0.4-1.2,0.6c-0.7,0.3-1.4,0.6-2.1,1c-0.5,0.2-1,0.4-1.4,0.6
			c-0.9,0.4-1.7,0.8-2.6,1.1c-0.3,0.1-0.6,0.2-0.9,0.4c-0.9,0.4-1.7,0.7-2.6,1c-0.3,0.1-0.6,0.2-0.9,0.4c-0.8,0.3-1.5,0.6-2.3,0.8
			c-11.1,4-22.8,6.8-34.8,8.3c1.1,8.9,1.7,17.9,1.7,26.8h0.1c0,6.8-0.3,13.6-1,20.2c2.1-0.2,4.1-0.4,6.2-0.7
			c1.2-0.1,2.4-0.3,3.5-0.5c1.1-0.1,2.2-0.3,3.3-0.5c0.8-0.1,1.7-0.3,2.5-0.4c0.1,0,0.3,0,0.4-0.1c0.2,0,0.3-0.1,0.5-0.1
			c0.7-0.1,1.4-0.3,2.1-0.4c0.8-0.2,1.7-0.3,2.5-0.5c0.9-0.2,1.8-0.4,2.7-0.6c0.3-0.1,0.6-0.1,0.9-0.2c0.8-0.2,1.7-0.4,2.5-0.6
			c0.2-0.1,0.5-0.1,0.7-0.2c1.1-0.2,2.2-0.5,3.2-0.8c1.1-0.3,2.3-0.6,3.4-0.9s2.3-0.6,3.4-1c1-0.3,2.1-0.6,3.2-0.9
			c0.9-0.3,1.7-0.5,2.6-0.8c0.8-0.2,1.5-0.5,2.2-0.7c0.8-0.2,1.5-0.5,2.2-0.8c1.1-0.4,2.1-0.7,3.2-1.1s2.2-0.8,3.3-1.2
			c1.2-0.5,2.3-0.9,3.5-1.4c1.7-0.7,3.4-1.4,5.1-2.1c0.8-0.3,1.5-0.7,2.2-1c16.8-7.6,32.3-17.3,46.4-28.9l0.1-0.1
			c5.2-4.3,10.2-8.8,15-13.6C416.4,217,422.3,210.2,427.8,203.1L427.8,203.1L427.8,203.1z M365.9,76.1c0-16.1,13.1-29.2,29.2-29.2
			h0.1c16,0.1,29,13.1,29,29.2c0,34.4-10.8,66.3-29.2,92.5C376,141.7,365.9,109.7,365.9,76.1L365.9,76.1L365.9,76.1z"/>
		<path class="st0" d="M265.9,348.5c0.4-1,0.8-1.9,1.2-2.9c0.6-1.5,1.3-3,1.9-4.4c0.5-1.2,0.9-2.3,1.4-3.5c0.4-1.1,0.8-2.2,1.2-3.3
			c0.4-1,0.8-2.1,1.1-3.1c5.4-15.6,8.9-31.7,10.5-48v-0.1c0.7-6.7,1-13.5,1-20.2c0-8.9-0.6-17.9-1.7-26.8v-0.1
			c-5.7-44.1-25.4-86.6-59.1-120.4c-29.7-29.7-78-29.7-107.6,0c-29.7,29.7-29.7,78,0,107.6c33.8,33.8,76.3,53.5,120.4,59.1h0.1
			c-3.5,29.2-14.8,56.5-32.9,79.6c7,5.4,13.7,11.3,20.1,17.7c4.8,4.8,9.4,9.9,13.7,15.1C248.6,380.9,258.3,365.3,265.9,348.5
			L265.9,348.5L265.9,348.5z M148.9,190.1c-11.4-11.4-11.4-29.9,0-41.2c11.4-11.4,29.9-11.4,41.2,0c24.3,24.3,39.2,54.4,44.7,85.9
			C203.3,229.3,173.2,214.4,148.9,190.1z"/>
		<path class="st0" d="M790,395.1c0-0.1,0-0.1,0-0.2c0-42-34.2-76.1-76.1-76.1c-47.8,0-91.8,16.2-127,43.3
			c-15.6,12.1-15.6,12.1-0.1,0c-18.2-23.1-29.5-50.5-33-79.7c-8.9,1.1-17.8,1.7-26.8,1.7c-6.8,0-13.5-0.3-20.3-1h-0.1v0.1
			c2.2,22.8,8.1,44.4,17.1,64.5c1.1,2.6,2.3,5.1,3.6,7.6c0.5,0.9,0.9,1.8,1.3,2.7c0.4,0.8,0.8,1.6,1.3,2.5c0.8,1.5,1.6,3,2.5,4.5
			l0,0c6,10.6,12.8,20.6,20.5,29.9l0.1,0.1c4.3,5.2,8.9,10.3,13.7,15.1c6.3,6.3,13,12.2,20.1,17.7l0,0c35.2,27.2,79.2,43.3,127,43.3
			C755.7,471.1,789.9,437,790,395.1L790,395.1L790,395.1z M713.8,424.1c-33.5,0-65.5-10.2-92.5-29.1c26.2-18.4,58.1-29.2,92.5-29.2
			c16.1,0,29.2,13.1,29.2,29.2c0,0.1,0,0.1,0,0.2C742.9,411.1,729.9,424.1,713.8,424.1L713.8,424.1L713.8,424.1z"/>
	</g>
	<path class="st0" d="M681.6,665.7c22.1-29.8,19.7-72.2-7.3-99.1c-33.8-33.8-76.3-53.5-120.4-59.1l0,0l0,0c1.2-10.3,3.5-20.4,6.6-30
		c0.4-1.2,0.8-2.4,1.2-3.6c0.1-0.1,0.1-0.2,0.2-0.3c0.2-0.8,0.6-1.7,0.9-2.5c0.3-0.9,0.7-1.9,1.1-2.8c0-0.1,0.1-0.2,0.2-0.4
		c0.4-1,0.7-2,1.1-2.9c0.1-0.3,0.3-0.6,0.4-0.9c0.5-1.1,0.9-2.2,1.4-3.3c0.5-1.1,1-2.2,1.6-3.4c0-0.1,0.1-0.2,0.1-0.3
		c0.3-0.7,0.6-1.3,0.9-1.9c0.6-1.2,1.2-2.4,1.9-3.6c4.3-8.3,9.5-16.2,15.5-23.8c-7.1-5.5-13.8-11.4-20.1-17.7l0,0
		c-4.8-4.9-9.4-9.9-13.7-15.1c-0.6,0.8-1.2,1.6-1.9,2.4c-0.5,0.7-1.1,1.4-1.6,2.1c-0.6,0.8-1.2,1.5-1.7,2.3
		c-0.6,0.7-1.2,1.5-1.7,2.3c-0.4,0.5-0.8,1.1-1.2,1.7c-0.8,1.1-1.6,2.2-2.3,3.3c-0.4,0.5-0.8,1.1-1.2,1.7c-0.1,0.1-0.2,0.3-0.3,0.4
		l-1.4,2.2c-1.5,2.2-2.8,4.4-4.2,6.6c-0.5,0.8-1,1.6-1.4,2.4c-0.5,0.9-1,1.7-1.5,2.6s-1,1.8-1.5,2.7c-0.5,0.9-1,1.8-1.5,2.7
		c-0.5,0.9-0.9,1.8-1.4,2.7c-0.5,0.9-0.9,1.8-1.4,2.7c-0.5,1.1-1.1,2.3-1.7,3.4c-1.1,2.3-2.1,4.7-3.1,7c-0.3,0.8-0.7,1.6-1,2.4
		c-0.2,0.5-0.4,1.1-0.7,1.6c-0.1,0.4-0.3,0.7-0.4,1.1c-0.9,2.2-1.7,4.5-2.5,6.8c-0.1,0.2-0.1,0.3-0.2,0.5
		c-5.4,15.4-9.1,31.6-10.7,48.4c0,0,0,0,0,0.1c-0.6,6.7-1,13.4-1,20.3h0.1c0-2.3,0-2.3,0,0c0,9,0.5,17.9,1.7,26.8v0.1
		c5.7,44,25.4,86.6,59.2,120.4c26.6,26.6,68.3,29.4,98,8.2c3.4-2.4,6.6-5.1,9.7-8.2C677,671.6,679.4,668.8,681.6,665.7L681.6,665.7
		L681.6,665.7z M515.5,464.2c-4.1,13.2-7,26.7-8.5,40.4C508.5,490.9,511.3,477.4,515.5,464.2z M630.1,647.9
		c-10.2,3.6-22.1,1.3-30.3-6.9c-24.3-24.3-39.2-54.5-44.7-86c31.5,5.5,61.7,20.4,86,44.7c8.6,8.6,10.7,21.2,6.3,31.7
		c-1.4,3.5-3.5,6.7-6.3,9.5C637.9,644.2,634.1,646.5,630.1,647.9L630.1,647.9L630.1,647.9z"/>
</g>
</svg>
